<?xml version="1.0" standalone="no"?>
<!DOCTYPE svg PUBLIC "-//W3C//DTD SVG 20010904//EN" "http://www.w3.org/TR/2001/REC-SVG-20010904/DTD/svg10.dtd">
<svg version="1.0" xmlns="http://www.w3.org/2000/svg"
    width="48px" height="48px" fill="#fff" viewBox="0 0 256.000000 256.000000"
    preserveAspectRatio="xMidYMid meet">

    <g transform="translate(0.000000,256.000000) scale(0.100000,-0.100000)"
        fill="#fff" stroke="none">
        <path fill="#fff"
            d="M555 2173 c-33 -8 -81 -50 -93 -80 -6 -15 -56 -226 -111 -468 -55
-242 -136 -599 -181 -794 -72 -314 -79 -357 -69 -388 19 -59 40 -63 363 -63
179 0 287 4 291 10 4 6 224 10 627 10 607 0 621 0 654 20 21 13 38 36 48 63 9
23 65 258 125 522 61 264 139 607 175 762 37 155 66 298 66 318 0 46 -29 75
-76 75 -21 0 -33 4 -29 10 6 10 -1749 13 -1790 3z m995 -18 c0 -6 -341 -389
-350 -393 -4 -1 -49 42 -101 96 -52 54 -101 102 -109 106 -8 5 12 -20 46 -55
33 -35 165 -175 292 -311 229 -244 232 -248 232 -290 0 -24 -7 -53 -15 -65
-15 -21 -823 -606 -874 -632 -51 -27 -130 17 -145 81 -15 64 0 78 393 362
l372 269 -49 51 c-26 28 -122 130 -212 226 -199 213 -215 230 -204 208 5 -9
53 -64 107 -123 54 -58 97 -109 95 -115 -5 -14 -890 -1011 -894 -1007 -2 2 9
62 25 133 17 71 93 410 171 754 78 344 148 635 156 648 9 13 29 32 47 42 31
19 54 20 525 20 270 0 492 -2 492 -5z m215 -1350 c36 -35 35 -102 -1 -139
l-27 -26 -256 0 c-215 0 -260 2 -279 15 -44 32 -45 121 -1 158 19 15 48 17
281 17 l259 0 24 -25z" />
    </g>
</svg>